<?xml version="1.0" encoding="utf-8"?>
<!-- Generator: Adobe Illustrator 24.2.1, SVG Export Plug-In . SVG Version: 6.00 Build 0)  -->
<svg version="1.1" id="Layer_1" xmlns="http://www.w3.org/2000/svg" xmlns:xlink="http://www.w3.org/1999/xlink" x="0px" y="0px"
	 viewBox="0 0 128 128" style="enable-background:new 0 0 128 128;" xml:space="preserve">
<style type="text/css">
	.st0{fill:#EFCCA3;}
	.st1{fill:#CCAC8D;}
	.st2{fill:#FFFFFF;}
	.st3{fill:#56332B;}
	.st4{fill:#442823;}
	.st5{fill:#7F4A41;}
	.st6{fill:#331712;}
	.st7{fill:#FFFFFF;stroke:#000000;stroke-miterlimit:10;}
	.st8{font-family:'Consolas-Bold';}
	.st9{font-size:28.6808px;}
	.st10{font-family:'Consolas';}
</style>
<g>
	<path class="st0" d="M106.6,69.7c-0.2-4.3,0.4-8.1-1.6-11.3c-4.7-8-16.4-12.7-39.8-12.7v0.7h-0.5h0.5v-0.7
		c-23.4,0-35.7,4.7-40.4,12.8c-1.9,3.3-1.7,7-1.9,11.3c-0.2,3.4-1.8,7-1.1,10.9c0.8,5.1,1.1,10.1,1.9,14.8c0.6,3.8,5.8,7,6.3,10.6
		c1.4,9.9,11.7,14.5,35.1,14.5v0.8h-0.6h0.1h0.6v-0.8c23.4,0,33.3-4.6,34.6-14.5c0.5-3.7,5.4-6.8,5.9-10.6c0.8-4.7,1.1-9.7,1.9-14.8
		C108.3,76.8,106.8,73.1,106.6,69.7z"/>
	<path class="st1" d="M64.9,73.2c4.2,0.1,7.1,2.7,9.8,5.2c3.2,2.8,8.7,4.8,10.9,7.2s5.2,4.9,6.2,8.7c1.1,3.8,1.4,8.7,1.4,9.9
		c0,1.3,0.7,1,2.6,0c4.6-2.2,9.7-8.3,9.7-8.3c-0.6,3.8-5.6,7.2-6,10.8c-1.2,9.9-10.8,14.7-34.7,14.7h-0.1l0,0h0.6"/>
	<path class="st1" d="M80.3,65.6c0.9,3,4,13.3-2,9.8c0,0,2.5,1.5,4.1,7C84,88,88,88.7,88,88.7s6.5,1.3,11.4-2.9
		c4.1-3.5,4.8-9.7,3-14.5c-1.8-4.7-4.9-6.1-9.5-7.1C88.4,63.1,79.2,62.2,80.3,65.6z"/>
	<g>
		<circle cx="91.9" cy="76.7" r="8.6"/>
		<circle class="st2" cx="89.6" cy="72.9" r="2.2"/>
	</g>
	<path class="st0" d="M78.8,76.3c0,0,7.7,5.3,11.9,10.4c4.2,5.2,4.1,6.1,4.1,6.1l-3,1.4c0,0-4.3-8.1-9.6-11.1
		c-5.4-3-5.9-5.6-5.9-5.6L78.8,76.3z"/>
	<path class="st1" d="M65.2,73.2c-4.2,0.1-7.3,2.7-10.1,5.2c-3.2,2.8-8.9,4.8-11.1,7.2s-5.3,4.9-6.3,8.7c-1.1,3.8-1.5,8.7-1.5,9.9
		c0,1.3,0.2,1.4-2.6,0c-4.6-2.1-9.7-8.3-9.7-8.3c0.6,3.8,5.6,7.2,6,10.8c1.4,9.9,11,14.7,34.9,14.7h0.1l0,0h0.4"/>
	<path class="st3" d="M87.8,89.7c-4.7-5.8-12.2-11.1-22.6-11.1h-0.1l0,0c-10.4,0-17.9,5.4-22.6,11.1C37.6,95.6,38,98,38,103.6
		c0,20.5,7.2,14.6,12,17.2c4.9,2.4,9.9,1.7,15.1,1.7l0,0h0.1c5.3,0,10.2,0.7,15.1-1.8c4.8-2.4,12,3.6,12-16.9
		C92.4,98.2,92.7,95.6,87.8,89.7z"/>
	<path class="st4" d="M64.7,83.6c0,0-0.7,9.5-2,11.3l2.5-0.6L64.7,83.6z"/>
	<path class="st4" d="M65.4,83.6c0,0,0.7,9.5,2,11.3l-2.5-0.6L65.4,83.6z"/>
	<path class="st3" d="M57.2,81.4c-1-2.2,2.5-5.8,8.1-5.9c5.6,0,9.1,3.6,8.1,5.9c-1,2.3-4.5,3-8.1,3.1C61.8,84.4,58.1,83.7,57.2,81.4
		z"/>
	<path d="M65.3,83.6c0-0.4,3.3-0.5,5.1-1.7c0,0-3.6,1.2-4.4,0.7c-0.8-0.4-1-1.6-1-1.6s-0.3,1.2-0.9,1.6c-0.7,0.4-4.8-0.7-4.8-0.7
		s5.5,1.4,5.5,1.7s-0.1,1.3-0.1,1.9c0,2.4,0,8.5,0.4,9c0.6,0.9,0.4-6.5,0.4-9C65.4,84.8,65.4,84,65.3,83.6z"/>
	<path class="st5" d="M65.5,96.7c1.7,0,4.6,1.2,7.2,3c-2.5-2.8-5.6-4.8-7.2-4.8c-1.8,0-5.5,2.1-8.1,5.3
		C60.1,98.1,63.6,96.7,65.5,96.7z"/>
	<path class="st4" d="M64.8,114c-3.7,0-7.3-1.2-10.6-2c-0.7-0.2-1.4,0.3-2,0.1c-6.1-1.9-11.1-5.3-14.1-9.5c0,0.3,0,0.7,0,1
		c0,20.5,7.2,14.7,12,17.2c4.9,2.4,9.9,1.7,15.1,1.7l0,0h0.1c5.3,0,10.2,0.7,15.1-1.8c4.8-2.4,12,3.5,12-17c0-0.8,0-1.6,0.1-2.2
		c-2.8,4.6-8,8.2-14.4,10.3c-0.6,0.2-1.9-0.3-2.5-0.2C71.9,112.7,68.8,114,64.8,114z"/>
	<path class="st4" d="M55.5,102.9c0,0-2.4,7.3-0.8,10.5l-2.2-1C52.5,112.5,54.1,105.1,55.5,102.9z"/>
	<path class="st4" d="M74.8,102.9c0,0,2.4,7.3,0.8,10.5l2.2-1C77.8,112.5,76.1,105.1,74.8,102.9z"/>
	<path class="st1" d="M49.3,65.6c-0.9,3-4,13.3,2,9.8c0,0-2.5,1.5-4.1,7c-1.6,5.6-5.7,6.2-5.7,6.2S35,90,30.2,85.8
		c-4.1-3.5-4.8-9.7-3-14.5c1.8-4.8,4.9-6.1,9.5-7.1C41.2,63.1,50.2,62.2,49.3,65.6z"/>
	<path d="M65.2,94.9c2.6,0,10.8,5.7,10.9,12.6c0-0.1,0-0.2,0-0.4c0-7.2-6.6-13-10.9-13s-10.9,5.8-10.9,13c0,0.1,0,0.2,0,0.4
		C54.3,100.6,62.5,94.9,65.2,94.9z"/>
	<g>
		<ellipse transform="matrix(0.9683 -0.2497 0.2497 0.9683 -17.8646 19.2472)" class="st6" cx="66.9" cy="80" rx="0.8" ry="1.5"/>
		<ellipse transform="matrix(0.2963 -0.9551 0.9551 0.2963 -32.3116 116.2208)" class="st6" cx="62.7" cy="80" rx="1.5" ry="0.8"/>
	</g>
	<g>
		<circle cx="38.2" cy="76.7" r="8.6"/>
		<circle class="st2" cx="40.4" cy="72.9" r="2.2"/>
	</g>
	<g>
		<path class="st5" d="M67.7,76.8c0-0.1-2.2,1-2.8,1.1c-0.6-0.1-2.8-1.2-2.8-1.1c0,0,1.9,0,2.8,0C65.8,76.8,67.7,76.8,67.7,76.8z"/>
	</g>
	<path class="st0" d="M50.6,76.3c0,0-7.7,5.3-11.9,10.4c-4.2,5.2-4.1,6.1-4.1,6.1l3,1.4c0,0,4.3-8.1,9.6-11.1s5.9-5.6,5.9-5.6
		L50.6,76.3z"/>
	<path class="st1" d="M33.8,60.7c0,0-2.6,7.2-8.5,10.2C25.3,71,34.5,69.9,33.8,60.7z"/>
	<path class="st1" d="M95.3,60.7c0,0,2.6,7.2,8.5,10.2C103.8,71,94.6,69.9,95.3,60.7z"/>
	<path class="st1" d="M78.6,74.2c0,0-5.8-6-13.5-6.2l0,0c-0.1,0,0.2,0,0.1,0c-0.1,0,0.1,0,0.1,0l0,0c-7.8,0.2-13.5,6.2-13.5,6.2
		c6.7-4.7,12.5-4.6,13.5-4.6l0,0l0,0l0,0l0,0C65.3,69.6,71.9,69.5,78.6,74.2z"/>
	<path class="st1" d="M71.9,61.5c0,0-2.9-4.1-6.8-4.2l0,0h0.1h0.1l0,0c-2.9,0.1-6.7,4.2-6.7,4.2c3.3-3.2,6.7-3.1,6.7-3.1l0,0l0,0
		l0,0l0,0C65.3,58.4,68.5,58.3,71.9,61.5z"/>
	<path class="st1" d="M38.2,91.4c0,0-4.6,2.2-7.9,0.9l0,0h-0.1l0,0l0,0c-2.9-1.7-4.4-6.6-4.4-6.6S28.7,94.5,38.2,91.4z"/>
	<path class="st1" d="M91.6,91.4c0,0,4.6,2.2,7.9,0.9l0,0l0,0l0,0l0,0c3.9-1.7,4.5-6.6,4.5-6.6S101,94.5,91.6,91.4z"/>
	<g>
		<path class="st1" d="M43.4,60.2c2.5-0.5,6.7-0.6,10,0.5c4.2,1.5,0.8,6.8,1.7,7.1c0.9,0.3,2-3.7,9.8-3.3c7.9,0.4,8.8,3.9,9.8,3.3
			c1.1-0.6-1.1-9.7,10.7-7.6c0,0-12.4-3.3-11.8,5.7c0,0-7.1-5.5-17.1-0.6C56.8,65.3,59.3,56.9,43.4,60.2z"/>
	</g>
	<path class="st1" d="M86.6,60.2c0.2,0,0.3,0.1,0.4,0.1C87.1,60.3,86.9,60.2,86.6,60.2z"/>
	<path class="st1" d="M86.6,60.2L86.6,60.2L86.6,60.2z"/>
	<path class="st1" d="M40,48.3c0,0-10.5,13.3-12.1,18.3c-1.6,5.2-2.7,26.3-4.1,29.3L19,75.1l9-21.7L40,48.3z"/>
	<path class="st1" d="M89.5,48.3c0,0,10.5,13.3,12.1,18.3c1.6,5.2,2.7,26.3,4.1,29.3l4.9-20.9l-9-21.7L89.5,48.3z"/>
	<path class="st3" d="M89,48.3c0,0,11.3,9.5,14.6,20.4c3.3,10.9,1.9,24.2,4.5,25.8c3.6,2.3,7.7-11.6,9.1-13.1
		c2.1-2.3,9.3-8.3,9.7-9.4s-14.4-17.4-21-20.6C98.1,47.8,88.4,47.5,89,48.3z"/>
	<path class="st4" d="M98.7,54.1c0,0,13.4,17.1,13.2,38.3l5.4-10.9C117.1,81.5,112.4,67.6,98.7,54.1z"/>
	<path class="st3" d="M40,48.3c0,0-11.3,9.5-14.6,20.4s-1.9,24.2-4.5,25.8c-3.6,2.3-7.7-11.6-9.1-13.1c-2.1-2.3-9.3-8.3-9.7-9.4
		s14.4-17.4,21-20.6C30.9,47.8,40.7,47.5,40,48.3z"/>
	<path class="st4" d="M30.4,54.1c0,0-13.4,17.1-13.2,38.3l-5.3-10.9C11.9,81.5,16.6,67.6,30.4,54.1z"/>
	<path class="st1" d="M23.2,92.8c0,0,1,5.3,2.5,6.9c1.6,1.7,0.5-1.3,0.5-1.3s-1.7-0.9-1.4-7.6C25.1,84.1,23.2,92.8,23.2,92.8z"/>
	<path class="st1" d="M106.3,92.8c0,0-1,5.3-2.5,6.9c-1.6,1.7-0.5-1.3-0.5-1.3s1.7-0.9,1.4-7.6S106.3,92.8,106.3,92.8z"/>
	<g>
		<circle class="st4" cx="55" cy="88.8" r="0.8"/>
		<circle class="st4" cx="50.5" cy="93.5" r="0.8"/>
		<circle class="st4" cx="49.1" cy="88.8" r="0.8"/>
	</g>
	<g>
		<circle class="st4" cx="74" cy="88.8" r="0.8"/>
		<circle class="st4" cx="78.5" cy="93.5" r="0.8"/>
		<circle class="st4" cx="80" cy="88.8" r="0.8"/>
	</g>
</g>
<text transform="matrix(1 0 0 1 18.4675 28.829)"><tspan x="0" y="0" class="st7 st8 st9">&lt;html&gt;</tspan><tspan x="31.5" y="34.4" class="st7 st10 st9">to</tspan></text>
</svg>
